<svg width="23" height="12" viewBox="0 0 23 12" fill="none" xmlns="http://www.w3.org/2000/svg">
<path d="M22.5205 8.75714C22.4197 8.81458 22.3087 8.8516 22.1936 8.86606C22.0786 8.88053 21.9618 8.87216 21.85 8.84144C21.7381 8.81072 21.6335 8.75826 21.542 8.68704C21.4504 8.61582 21.3739 8.52726 21.3166 8.42641L19.222 4.76635C18.0043 5.58973 16.6609 6.21001 15.2445 6.603L15.8916 10.4857C15.9107 10.6001 15.907 10.717 15.8809 10.8299C15.8548 10.9428 15.8067 11.0495 15.7393 11.1438C15.6719 11.238 15.5866 11.3181 15.4883 11.3795C15.39 11.4408 15.2805 11.4821 15.1662 11.5011C15.1192 11.5088 15.0716 11.5128 15.024 11.5132C14.8153 11.5129 14.6136 11.4386 14.4545 11.3036C14.2954 11.1686 14.1894 10.9815 14.1553 10.7757L13.5192 6.96349C12.1777 7.15017 10.8169 7.15017 9.47545 6.96349L8.83935 10.7757C8.80512 10.9819 8.69877 11.1692 8.53926 11.3043C8.37975 11.4394 8.17745 11.5134 7.96843 11.5132C7.91968 11.513 7.87102 11.509 7.82291 11.5011C7.70859 11.4821 7.59913 11.4408 7.50079 11.3795C7.40245 11.3181 7.31715 11.238 7.24979 11.1438C7.18242 11.0495 7.13429 10.9428 7.10817 10.8299C7.08204 10.717 7.07842 10.6001 7.09751 10.4857L7.74794 6.603C6.33202 6.20877 4.98945 5.58737 3.77259 4.76305L1.68459 8.42641C1.62668 8.52732 1.54946 8.61583 1.45735 8.6869C1.36523 8.75796 1.26002 8.81019 1.14772 8.84059C1.03542 8.87099 0.918232 8.87898 0.802846 8.8641C0.687459 8.84921 0.576135 8.81174 0.475228 8.75383C0.374321 8.69593 0.285809 8.61871 0.214744 8.52659C0.143679 8.43448 0.0914541 8.32926 0.0610503 8.21696C0.0306464 8.10467 0.0226593 7.98748 0.0375451 7.87209C0.0524308 7.7567 0.0898978 7.64538 0.147807 7.54447L2.35266 3.68597C1.57821 3.01689 0.866058 2.27891 0.224977 1.48112C0.145028 1.39185 0.0841084 1.28723 0.0459378 1.17364C0.00776725 1.06005 -0.00685404 0.939868 0.00296678 0.820437C0.0127876 0.701007 0.0468445 0.584831 0.103058 0.479C0.159272 0.373169 0.236464 0.279903 0.329921 0.204897C0.423378 0.129891 0.531141 0.0747183 0.646631 0.0427454C0.762121 0.0107724 0.882915 0.0026703 1.00164 0.0189342C1.12036 0.0351982 1.23453 0.0754869 1.33717 0.137341C1.4398 0.199194 1.52876 0.281316 1.5986 0.378692C3.42863 2.64308 6.63008 5.33962 11.4962 5.33962C16.3623 5.33962 19.5638 2.63977 21.3938 0.378692C21.4628 0.279322 21.5516 0.195224 21.6545 0.131629C21.7575 0.0680336 21.8724 0.0263019 21.9922 0.00903046C22.1119 -0.00824102 22.234 -0.000683007 22.3507 0.0312343C22.4674 0.0631516 22.5763 0.118746 22.6706 0.194557C22.7649 0.270369 22.8426 0.364776 22.8989 0.471906C22.9551 0.579036 22.9888 0.696595 22.9976 0.817272C23.0065 0.937949 22.9904 1.05916 22.9505 1.17337C22.9105 1.28757 22.8474 1.39233 22.7652 1.48112C22.1241 2.27891 21.412 3.01689 20.6375 3.68597L22.8424 7.54447C22.9016 7.64505 22.9402 7.75638 22.9561 7.872C22.9719 7.98762 22.9646 8.10524 22.9347 8.21804C22.9048 8.33084 22.8527 8.43657 22.7816 8.52911C22.7105 8.62165 22.6218 8.69916 22.5205 8.75714Z" fill="black"/>
</svg>
