<svg viewBox="-4.5 0 32 32" height="32" width="32" xmlns="http://www.w3.org/2000/svg" focusable="false" aria-hidden="true">
    <defs>
      <linearGradient x1="97.6553341%" y1="35.6591143%" x2="37.202032%" y2="75.4891864%" id="uid11-1">
        <stop stop-color="#0052CC" offset="7%"></stop>
        <stop stop-color="#2684FF" offset="100%"></stop>
      </linearGradient>
      <linearGradient x1="8.43371138%" y1="60.1495759%" x2="64.1161517%" y2="23.5790285%" id="uid11-2">
        <stop stop-color="#0052CC" offset="0%"></stop>
        <stop stop-color="#2684FF" offset="100%"></stop>
      </linearGradient>
    </defs>
    <g stroke="none" stroke-width="1" fill-rule="nonzero">
      <path fill="#2684FF" d="M11.3881081,27.9242105 C12.4881804,26.8071817 13.1062496,25.2917664 13.1062496,23.7115789 C13.1062496,22.1313915 12.4881804,20.6159762 11.3881081,19.4989474 L11.3881081,19.4989474 L3.74837838,11.7621053 L0.273513514,15.2926316 C-0.0900771727,15.6625064 -0.0900771727,16.2617042 0.273513514,16.6315789 L11.3881081,27.9242105 L11.3881081,27.9242105 Z" fill-rule="nonzero"></path>
      <path fill="#2684FF" d="M22.5027027,15.2926316 L11.3881081,4 L11.3881081,4 L11.3539189,4.03473684 L11.3539189,4.03473684 C9.08852466,6.36456187 9.09963243,10.1156459 11.3787838,12.4315789 L19.0247297,20.1652632 L22.5027027,16.6315789 C22.8662934,16.2617042 22.8662934,15.6625064 22.5027027,15.2926316 Z" fill-rule="nonzero"></path>
      <path d="M11.3881081,12.4252632 C9.10895676,10.1093301 9.09784899,6.35824608 11.3632432,4.02842105 L3.43445946,12.0810526 L7.58067568,16.2936842 L11.3881081,12.4252632 Z" fill="url(#uid11-1)" fill-rule="nonzero"></path>
      <path fill="url(#uid11-2)" d="M15.1893243,15.6368421 L11.3881081,19.4989474 C12.4881804,20.6159762 13.1062496,22.1313915 13.1062496,23.7115789 C13.1062496,25.2917664 12.4881804,26.8071817 11.3881081,27.9242105 L19.3355405,19.8494737 L15.1893243,15.6368421 Z" fill-rule="nonzero"></path>
    </g>
</svg>
