<svg width="18" height="16" viewBox="0 0 18 16" fill="none" xmlns="http://www.w3.org/2000/svg">
<path d="M6.24946 5.85376L1.84793 10.5263C0.834346 11.6022 0.9048 13.3015 2.00397 14.2899V14.2899C3.06321 15.2424 4.68785 15.1798 5.67072 14.1487L9.58875 10.0385C9.68425 9.93828 9.77151 9.83055 9.84968 9.71633V9.71633C10.3083 9.04613 10.4236 8.19872 10.1607 7.43035L10.1554 7.41474" stroke="#0F7996" stroke-linecap="round"/>
<path d="M11.7505 10.1464L16.1521 5.47387C17.1657 4.39789 17.0952 2.69858 15.996 1.7102V1.7102C14.9368 0.757729 13.3121 0.82028 12.3293 1.85138L8.41125 5.96165C8.31575 6.06184 8.22849 6.16957 8.15032 6.28379V6.28379C7.69166 6.95399 7.57637 7.8014 7.83929 8.56977L7.84463 8.58538" stroke="#0F7996" stroke-linecap="round"/>
</svg>
