<svg width="30" height="15" viewBox="0 0 30 15" fill="none" xmlns="http://www.w3.org/2000/svg">
<path d="M13.5 15H7.5C5.425 15 3.656 14.2685 2.193 12.8055C0.730001 11.3425 -0.000998975 9.574 1.02459e-06 7.5C1.02459e-06 5.425 0.731501 3.656 2.1945 2.193C3.6575 0.730001 5.426 -0.000998975 7.5 1.02459e-06H13.5V3H7.5C6.25 3 5.1875 3.4375 4.3125 4.3125C3.4375 5.1875 3 6.25 3 7.5C3 8.75 3.4375 9.8125 4.3125 10.6875C5.1875 11.5625 6.25 12 7.5 12H13.5V15ZM9 9V6H21V9H9ZM16.5 15V12H22.5C23.75 12 24.8125 11.5625 25.6875 10.6875C26.5625 9.8125 27 8.75 27 7.5C27 6.25 26.5625 5.1875 25.6875 4.3125C24.8125 3.4375 23.75 3 22.5 3H16.5V1.02459e-06H22.5C24.575 1.02459e-06 26.344 0.731501 27.807 2.1945C29.27 3.6575 30.001 5.426 30 7.5C30 9.575 29.2685 11.344 27.8055 12.807C26.3425 14.27 24.574 15.001 22.5 15H16.5Z" fill="black"/>
</svg>
