<svg width="23" height="23" viewBox="0 0 23 23" fill="none" xmlns="http://www.w3.org/2000/svg">
<path d="M19.6318 3.36833L17.825 5.17511C16.3618 3.7118 14.4365 2.80108 12.3772 2.59814C10.3178 2.3952 8.25181 2.91259 6.53115 4.06215C4.8105 5.21172 3.54167 6.92233 2.94086 8.90252C2.34004 10.8827 2.44442 13.01 3.2362 14.9218C4.02799 16.8337 5.45818 18.4119 7.28311 19.3875C9.10804 20.3631 11.2148 20.6757 13.2444 20.2721C15.274 19.8686 17.1009 18.7737 18.4138 17.1742C19.7266 15.5747 20.4443 13.5694 20.4444 11.5001H23C23 14.1607 22.0774 16.7389 20.3896 18.7956C18.7017 20.8522 16.3529 22.26 13.7434 22.779C11.134 23.2981 8.42528 22.8962 6.07886 21.642C3.73245 20.3878 1.8935 18.3588 0.875356 15.9008C-0.142787 13.4427 -0.277132 10.7077 0.495213 8.16165C1.26756 5.61564 2.8988 3.4162 5.11101 1.93807C7.32321 0.459947 9.9795 -0.205399 12.6273 0.0554008C15.275 0.3162 17.7505 1.48701 19.6318 3.36833Z" fill="black"/>
</svg>
