<svg width="14" height="16" viewBox="0 0 14 16" fill="none" xmlns="http://www.w3.org/2000/svg">
<path d="M13 3.94879H1M11.8233 5.79066L11.4986 10.8742C11.3736 12.8295 11.3115 13.8072 10.7009 14.4032C10.0904 15 9.15082 15 7.27318 15H6.72682C4.84918 15 3.90965 15 3.29906 14.4032C2.68847 13.8072 2.62565 12.8295 2.50141 10.8742L2.17671 5.79066M5.00235 2.4753C5.14819 2.04391 5.41864 1.67035 5.77642 1.40612C6.13421 1.14189 6.56171 1 7 1C7.43829 1 7.86579 1.14189 8.22358 1.40612C8.58136 1.67035 8.85181 2.04391 8.99765 2.4753" stroke="black" stroke-width="1.5" stroke-linecap="round"/>
</svg>
