<svg width="14" height="15" viewBox="0 0 14 15" fill="none" xmlns="http://www.w3.org/2000/svg">
<path d="M13 3.20298H1.00002M11.8233 3.58945L11.4986 9.33607C11.3736 11.5464 11.3115 12.6516 10.7009 13.3254C10.0903 14 9.15081 14 7.27317 14H6.72681C4.84917 14 3.90964 14 3.29905 13.3254C2.68846 12.6516 2.62564 11.5464 2.5014 9.33607L2.1767 3.58945M5.00235 2.66773C5.14819 2.18007 5.41864 1.75779 5.77642 1.4591C6.13421 1.1604 6.56171 1 7 1C7.43829 1 7.86579 1.1604 8.22358 1.4591C8.58136 1.75779 8.85181 2.18007 8.99765 2.66773" stroke="black" stroke-linecap="round"/>
</svg>
